<svg width="96" height="73" viewBox="0 0 96 73" fill="none" xmlns="http://www.w3.org/2000/svg">
<g clip-path="url(#clip0_96_237)">
<path d="M52.5859 27.2035C52.1357 25.5533 52.8581 24.2828 53.6754 23.1988C54.8325 21.7059 56.1619 20.3208 57.5864 19.1221C64.2932 13.772 72.041 11.7678 80.5142 12.6442C82.6676 12.8747 84.8237 13.4172 87.2129 13.8797C86.7424 11.6523 84.9513 9.98288 84.3401 7.70995C85.3541 7.77893 85.8117 8.44588 86.206 8.98856C87.8146 11.2214 89.4081 13.5011 90.9395 15.8127C91.6659 16.9298 91.562 17.5705 90.4441 18.1423C88.1312 19.3646 85.671 19.761 83.1259 19.3C83.0321 19.2696 82.937 19.0832 82.7634 18.8194C83.933 16.9676 86.3604 18.2724 87.8609 16.8389C84.8682 15.0398 81.5905 14.6008 78.3153 14.474C74.8843 14.3486 71.5027 14.5504 68.2213 15.5628C65.0021 16.5435 62.1466 18.1607 59.3559 20.0582C56.5334 21.8936 54.3549 24.3007 52.5859 27.2035Z" fill="black"/>
</g>
<path d="M19.415 40.896C18.6544 40.9005 17.9333 41.064 17.3677 41.624C17.1464 41.8541 17.0124 42.4594 17.0022 42.8244C16.9825 43.4135 17.519 43.9345 17.9558 44.3323C18.3164 44.6517 19.212 45.2386 19.0655 45.8285C18.1101 46.8824 17.6812 45.7393 16.8957 45.9805C16.7506 46.0216 16.5675 46.1572 16.5264 46.2795C16.3265 46.9765 16.5024 47.178 17.6581 47.5669C18.1476 47.731 18.9251 47.7001 19.3428 47.4765C19.9238 47.1716 20.4308 46.6336 20.5392 45.8708C20.6753 44.8434 19.8596 44.1664 19.3356 43.6608C19.2205 43.5502 18.5345 43.1121 18.6034 42.7252C18.678 42.2826 19.1367 42.2041 19.8806 42.4934C20.1459 42.648 20.7351 43.2026 21.037 43.0091C21.185 42.9402 21.5206 42.6939 21.5169 42.3275C21.5124 41.8344 21.006 41.4292 20.4725 41.1479C20.2057 41.0073 19.4861 40.8894 19.415 40.896ZM24.7835 41.4602C24.3307 41.483 24.0918 41.6128 23.7313 41.8283C23.1583 42.1904 23.0726 42.3362 22.6997 42.8038C21.9919 43.6444 21.6705 45.2295 22.3016 46.3235C22.6615 46.7836 23.4222 47.314 24.125 47.4583C24.964 47.645 25.6294 47.4756 26.1951 47.1831C27.1842 46.6114 27.9374 45.6066 27.8998 44.4906C28.0315 42.7026 26.8405 41.3104 24.7835 41.4602ZM23.4716 44.9683C23.4246 44.0765 24.229 42.8519 24.9955 42.7917C25.9892 42.7131 26.7148 43.8452 26.3413 44.9884C26.1501 45.6018 25.4958 46.0679 25.051 46.1479C24.1072 46.288 23.5113 45.6623 23.4716 44.9683ZM30.8712 38.6934C29.8937 38.8863 29.8288 40.442 29.6098 41.5874C29.295 43.2436 28.9977 44.4652 28.6227 46.1573C28.4829 46.8183 27.861 48.583 28.3066 48.8973C28.684 49.1903 29.3252 48.8495 29.5391 48.4215C29.6812 48.1408 29.936 47.0555 30.0203 46.6561C30.4164 44.6284 30.8279 42.8557 31.205 40.7415C31.3609 39.9274 31.8766 38.5035 30.8712 38.6934ZM33.2009 43.0488C31.9954 42.8658 31.7757 43.8844 31.6073 44.9507C31.5495 45.3669 31.4346 46.3261 31.4405 46.8054C31.4576 47.8489 32.0871 48.4218 32.82 48.6818C34.8316 49.2311 35.7291 48.326 36.34 46.7995C36.5671 46.2462 36.7165 45.6284 36.7889 45.0729C36.8731 44.4061 36.9682 43.2336 36.5893 42.9545C36.3548 42.775 35.6579 42.8425 35.5026 43.2485C35.3429 43.6963 35.3218 44.8343 35.2018 45.4411C35.0517 46.1995 34.5411 47.441 33.9754 47.466C32.3222 47.6582 33.0554 45.3703 33.2824 44.2821C33.3834 43.8563 33.5519 43.325 33.2009 43.0488ZM41.3019 43.3512C41.2483 42.3884 41.5384 42.0388 41.7134 41.3111C41.8899 40.8369 42.0115 40.4837 41.311 40.4523C40.2052 40.3924 40.22 41.323 40.0098 42.1174C39.9204 42.4318 39.763 43.2599 39.5088 43.4021C39.2699 43.5318 38.3106 43.4169 38.0109 43.4558C37.7208 43.5379 37.4548 43.7915 37.3852 44.0517C37.2907 44.2811 37.3428 44.7229 37.6191 44.9068C38.0024 45.1442 39.0224 44.815 39.2907 45.2092C39.1501 46.0109 39.0689 46.6499 38.9297 47.1702C38.8895 47.4194 38.6112 48.46 38.543 48.7062C38.4918 48.926 38.0596 50.0913 38.1197 50.3228C38.1967 50.528 38.6291 50.7001 38.9398 50.6905C39.6462 50.6663 39.8922 49.1295 40.0394 48.6664C40.1104 48.3923 40.3624 47.3349 40.4195 47.0593C40.4964 46.7296 40.7592 45.1665 41.0471 44.9715C41.3212 44.7751 42.4526 44.9925 42.9077 44.8151C43.2162 44.6927 43.4257 44.3065 43.3817 43.9218C43.3112 43.2527 41.6024 43.7066 41.3019 43.3512ZM45.5733 41.9842C45.1885 42.0283 44.8119 42.3969 44.8098 42.819C44.8056 43.6632 46.3202 43.5831 46.3956 42.7323C46.4343 42.2296 46.0708 41.938 45.5733 41.9842ZM45.1992 44.338C44.525 44.3235 44.2357 45.0673 44.0636 45.7672C43.8556 46.6744 43.6249 47.6637 43.4126 48.6127C43.2859 49.1484 43.102 49.6921 43.3138 49.9537C43.6114 50.3369 44.5039 50.1492 44.7398 49.7798C44.9098 49.5021 44.95 48.718 45.0305 48.2197C45.1659 47.333 45.3886 46.554 45.6251 45.7764C45.7467 45.4232 45.9086 45.0883 45.8859 44.9029C45.8543 44.5336 45.397 44.3307 45.1992 44.338ZM49.1629 44.0226C48.71 44.0454 48.4712 44.1752 48.1107 44.3907C47.5377 44.7527 47.452 44.8986 47.0791 45.3662C46.3713 46.2068 46.0499 47.7919 46.681 48.8858C47.0408 49.346 47.8016 49.8764 48.5043 50.0206C49.3434 50.2074 50.0088 50.038 50.5744 49.7455C51.5636 49.1738 52.3168 48.169 52.2792 47.053C52.4108 45.2649 51.2198 43.8728 49.1629 44.0226ZM47.851 47.5307C47.804 46.6389 48.6084 45.4143 49.3749 45.3541C50.3686 45.2755 51.0942 46.4076 50.7207 47.5508C50.5295 48.1642 49.8752 48.6303 49.4304 48.7103C48.4866 48.8504 47.8907 48.2247 47.851 47.5307ZM54.8727 47.3959C54.7869 46.4719 55.4571 44.7827 54.3213 44.8745C53.6676 44.9325 53.6055 45.9254 53.4942 46.7161C53.3486 47.7003 53.1201 48.535 52.9202 49.4994C52.7305 50.3663 52.4683 51.2537 53.4927 51.1503C53.876 51.1202 54.4628 49.9571 54.7434 49.5643C55.2342 48.912 55.1353 48.9157 55.9281 48.0699C56.2475 47.7094 56.5816 47.2095 57.0191 47.1992C57.0367 47.8345 56.9262 48.2171 56.7724 48.8766C56.6032 49.5486 56.456 50.2792 56.4261 50.9659C56.6936 51.5008 57.6638 51.3775 57.8946 50.9231C57.9664 50.7758 57.9458 50.4358 57.9722 50.1852C58.0929 49.1703 58.6078 47.6196 58.6253 46.6501C58.6303 46.2002 58.4617 45.6616 58.3049 45.5466C57.7999 45.1275 57.2174 45.4463 56.8276 45.6728C56.3161 45.9851 55.8794 46.3897 55.5248 46.8169C55.3468 47.0375 55.1482 47.1856 54.8727 47.3959ZM65.7941 49.4729C66.2352 49.294 66.7511 49.475 67.2904 49.4331C67.8019 49.3883 68.0018 48.4239 67.3972 48.1492C66.723 47.8672 66.4614 48.079 66.0349 47.8512C65.8502 47.4658 66.1958 45.7847 66.3232 45.3758C66.5342 44.7082 66.8791 43.4353 67.5335 43.504C67.9234 43.545 67.9667 44.0704 68.0627 44.3621C68.1588 44.6537 68.2402 45.0846 68.5032 45.1263C68.8132 45.2574 69.2983 45.1958 69.4522 44.8037C69.5914 44.5509 69.6001 43.9324 69.3787 43.3601C69.0803 42.5827 68.5079 42.0017 67.5252 42.1095C66.5147 42.2145 65.9235 42.8843 65.4019 43.829C64.9337 44.6667 64.7433 45.4068 64.5193 46.4672C64.4468 46.7552 64.4674 47.3627 64.3245 47.5166C64.1494 47.7093 64.3113 47.6419 63.92 47.6148C63.5565 47.5907 63.1308 47.7571 63.04 48.0854C62.9821 48.2342 62.906 48.4233 63.0789 48.6526C63.515 49.1911 63.5025 48.9083 64.1672 49.1471C64.2773 49.9751 63.8788 51.355 63.9947 52.1274C64.0718 52.6 65.0838 52.7486 65.3372 52.2122C65.6332 51.5394 65.5735 49.8298 65.7941 49.4729ZM71.5027 46.3706C71.0499 46.3934 70.811 46.5232 70.4505 46.7387C69.8775 47.1008 69.7918 47.2466 69.4189 47.7142C68.7111 48.5548 68.3897 50.1399 69.0208 51.2338C69.3807 51.694 70.1414 52.2244 70.8442 52.3687C71.6833 52.5554 72.3486 52.386 72.9143 52.0935C73.9035 51.5218 74.6566 50.517 74.6191 49.401C74.7507 47.6129 73.5597 46.2208 71.5027 46.3706ZM70.1909 49.8787C70.1438 48.9869 70.9482 47.7623 71.7147 47.7021C72.7084 47.6235 73.434 48.7556 73.0605 49.8988C72.8693 50.5122 72.215 50.9783 71.7702 51.0583C70.8264 51.1984 70.2305 50.5727 70.1909 49.8787ZM77.4437 47.0091C77.333 46.8567 77.119 46.7498 76.9087 46.7417C76.1539 46.6906 76.1291 47.1947 75.8955 48.2119C75.6517 49.3265 75.4123 51.2018 75.1949 52.3332C75.1224 52.6212 75.033 52.9356 75.0711 53.1085C75.1232 53.2829 75.398 53.4808 75.6054 53.5166C76.1316 53.6001 76.399 53.6 76.588 53.1413C76.8166 52.5741 76.968 50.9993 77.0786 50.3493C77.1034 50.1126 78.1175 49.5716 78.706 49.4645C78.9514 49.4059 79.5662 49.3156 79.8659 49.2767C80.1517 49.2364 80.7006 48.9703 80.6755 48.4046C80.6477 48.1342 80.3325 47.9181 80.0431 47.8595C79.5491 47.7372 78.9549 47.9 78.5643 47.9997C78.2016 48.1023 77.6814 48.4981 77.345 48.3502C77.4211 47.8936 77.5471 47.4986 77.4437 47.0091ZM6.19164 61.2835C6.8314 61.4915 7.25198 61.2401 7.39698 60.6641C7.66429 59.5941 7.72926 58.0384 7.91883 56.6365C8.09528 55.6275 8.3479 54.4293 8.54412 53.366C8.71254 52.5672 9.17983 51.0678 8.48145 50.8818C8.26599 50.7888 7.79774 50.824 7.68125 50.9948C7.28638 51.6712 7.39882 53.682 6.76721 54.0661C5.87612 53.9724 5.08471 54.0019 4.33511 54.3032C3.65659 54.5979 3.15689 55.0662 2.7708 55.6591C2.45504 56.1186 2.21701 56.91 2.33584 57.6545C2.4576 58.3712 3.12382 59.131 3.70133 59.5295C4.33306 59.9479 5.07539 59.9837 5.82361 60.2312C5.97388 60.5426 5.8875 61.0966 6.19164 61.2835ZM6.36101 57.2611C6.27388 57.6884 6.19414 58.5809 6.02271 58.8726C5.35222 58.957 4.38411 58.3907 4.03595 57.8192C3.46128 56.8578 4.28694 55.565 5.32751 55.5759C5.97383 55.5875 6.32555 55.4555 6.5066 55.742C6.57333 56.0447 6.44961 56.82 6.36101 57.2611ZM10.9468 52.422C10.5621 52.466 10.1855 52.8347 10.1834 53.2567C10.1791 54.1009 11.6938 54.0208 11.7691 53.17C11.8079 52.6673 11.4444 52.3757 10.9468 52.422ZM10.5727 54.7758C9.89856 54.7612 9.60923 55.505 9.43713 56.2049C9.22916 57.1121 8.99848 58.1014 8.78612 59.0504C8.65943 59.5861 8.47559 60.1299 8.68741 60.3915C8.98498 60.7747 9.87749 60.5869 10.1134 60.2176C10.2834 59.9398 10.3235 59.1557 10.4041 58.6574C10.5395 57.7707 10.7621 56.9917 10.9987 56.2142C11.1203 55.8609 11.2822 55.526 11.2595 55.3406C11.2279 54.9713 10.7706 54.7684 10.5727 54.7758ZM14.6339 54.4706C13.8733 54.4751 13.1523 54.6386 12.5866 55.1986C12.3654 55.4287 12.2314 56.034 12.2212 56.399C12.2015 56.9881 12.738 57.5091 13.1748 57.9069C13.5353 58.2263 14.4309 58.8132 14.2844 59.4031C13.329 60.457 12.9002 59.3139 12.1147 59.5551C11.9696 59.5962 11.7864 59.7318 11.7454 59.8542C11.5454 60.5511 11.7213 60.7526 12.877 61.1415C13.3666 61.3056 14.144 61.2747 14.5617 61.0511C15.1428 60.7462 15.6498 60.2082 15.7581 59.4454C15.8942 58.418 15.0785 57.741 14.5545 57.2354C14.4394 57.1248 13.7535 56.6867 13.8223 56.2998C13.897 55.8572 14.3557 55.7787 15.0995 56.068C15.3648 56.2226 15.9541 56.7772 16.2559 56.5837C16.404 56.5148 16.7395 56.2685 16.7358 55.9021C16.7313 55.409 16.2249 55.0038 15.6914 54.7225C15.4246 54.5819 14.705 54.464 14.6339 54.4706ZM22.2464 60.6059C22.0096 59.7786 21.3487 60.1737 20.5433 60.2017C19.4552 60.2422 18.8483 59.5871 18.6782 58.795C18.5205 58.0183 19.4876 57.1205 20.5033 57.1005C20.8836 57.0983 21.2449 57.277 21.7271 57.2432C22.1089 57.227 22.5052 56.8042 22.437 56.248C22.3629 55.7475 20.9457 55.5704 20.4943 55.5792C19.2837 55.5787 18.2373 56.1585 17.6095 57.1765C17.3113 57.7364 17.066 58.5974 17.1936 59.2584C17.5463 60.5905 18.4587 61.4185 19.8899 61.597C21.1819 61.761 22.4532 61.3174 22.2464 60.6059ZM26.0531 55.6708C25.6003 55.6936 25.3614 55.8233 25.0009 56.0388C24.4279 56.4009 24.3422 56.5468 23.9693 57.0143C23.2615 57.855 22.9401 59.4401 23.5712 60.534C23.9311 60.9942 24.6918 61.5246 25.3946 61.6688C26.2336 61.8556 26.899 61.6862 27.4646 61.3937C28.4538 60.822 29.207 59.8172 29.1694 58.7011C29.3011 56.9131 28.1101 55.521 26.0531 55.6708ZM24.7412 59.1789C24.6942 58.2871 25.4986 57.0625 26.2651 57.0023C27.2588 56.9237 27.9844 58.0557 27.6109 59.199C27.4197 59.8123 26.7654 60.2785 26.3206 60.3584C25.3768 60.4986 24.7809 59.8728 24.7412 59.1789ZM31.9156 60.8057C31.8914 60.0993 31.7703 58.9745 31.6749 58.2747C31.6279 57.9178 31.5677 57.1513 31.4087 56.9235C31.1265 56.5278 30.4084 56.6635 30.1534 56.9464C30.0889 57.0241 29.9175 57.3158 30.0143 57.7342C30.0217 58.467 30.5775 60.4117 30.766 61.6985C30.8409 62.3257 30.8703 62.8497 31.2917 62.9925C31.9798 63.276 32.5974 62.3555 32.9425 61.885C34.0802 60.3012 34.5381 59.561 35.1147 58.7629C35.429 58.3173 35.8694 58.0117 35.7264 57.3632C35.6288 56.818 35.0711 56.6327 34.6366 56.8827C34.1281 57.1671 33.9032 57.8332 33.5186 58.4122C32.9845 59.074 32.471 60.0758 31.9156 60.8057ZM37.4542 61.5427C37.8001 61.4664 38.3885 61.3594 38.8333 61.2794C39.4928 61.1657 39.8335 61.0045 40.4834 60.8475C40.8725 60.7617 41.1868 60.3162 41.1985 59.9373C41.2249 59.6867 41.0885 59.1093 41.0086 58.9319C40.5577 57.4628 39.4584 56.939 38.0441 57.269C37.4697 57.3775 36.786 57.8547 36.386 58.4461C35.8761 59.0119 35.6307 59.873 35.7694 61.0982C36.0254 62.2794 36.3449 62.7212 37.4244 63.2992C38.095 63.7498 39.4785 63.7122 40.2427 63.2717C40.4999 63.1016 40.6149 62.6773 40.3423 62.3249C39.8468 61.949 39.3779 62.6599 38.4656 62.3669C37.8661 62.1772 37.5173 62.0139 37.4542 61.5427ZM37.7308 58.9112C38.6826 58.2933 39.5121 58.4368 39.7629 59.533C39.6684 59.7624 39.2398 59.9567 38.9122 59.9926C38.4146 60.0389 37.5361 60.2281 37.2898 60.16C37.2048 59.8976 37.338 59.1655 37.7308 58.9112ZM44.0682 57.5783C43.9575 57.4259 43.7435 57.319 43.5332 57.311C42.7784 57.2598 42.7536 57.7639 42.52 58.7811C42.2762 59.8957 42.0368 61.771 41.8194 62.9024C41.7469 63.1904 41.6575 63.5048 41.6956 63.6778C41.7477 63.8522 42.0225 64.05 42.2299 64.0858C42.7561 64.1693 43.0235 64.1693 43.2125 63.7105C43.4411 63.1433 43.5925 61.5685 43.7031 60.9185C43.7279 60.6818 44.742 60.1408 45.3305 60.0337C45.5759 59.9751 46.1907 59.8848 46.4904 59.846C46.7762 59.8056 47.325 59.5395 47.3 58.9738C47.2722 58.7034 46.957 58.4873 46.6676 58.4287C46.1736 58.3064 45.5794 58.4692 45.1888 58.5689C44.8261 58.6716 44.3059 59.0673 43.9695 58.9194C44.0456 58.4628 44.1716 58.0678 44.0682 57.5783ZM52.7485 60.1095C53.2593 60.2055 53.9099 59.6404 54.9717 59.5831C55.2876 59.6585 55.6849 60.4322 55.287 60.8691C55.035 61.1241 53.8463 60.9147 53.1422 61.0519C52.7391 61.1362 52.2211 61.3774 52.0057 61.5518C51.6672 61.8259 51.2539 62.2752 51.3295 63.0292C51.3376 63.3538 51.5854 63.6755 51.8126 63.9246C52.3564 64.6434 52.9566 64.9599 53.7445 65.3665C53.9709 65.4888 54.5315 65.6463 54.7726 65.6294C55.1112 65.6227 55.5258 65.1595 55.6526 64.8913C55.9544 64.1629 56.1741 63.4117 56.4121 62.6203C56.5981 61.9219 56.9124 60.9413 56.8529 60.0342C56.8176 59.2984 56.4144 58.5804 55.9322 58.3467C55.0755 58.0596 54.3626 58.2802 53.4386 58.6336C52.9725 58.7817 52.4156 58.9906 52.4267 59.5549C52.4421 59.8099 52.4942 59.9843 52.7485 60.1095ZM54.0598 62.2322C54.3258 62.2461 54.8622 62.2321 55.0271 62.4043C54.9759 62.8916 54.8317 63.8619 54.3884 63.9279C53.7303 63.7602 52.7307 63.3595 52.8016 62.5505C53.0398 62.294 53.5278 62.2045 54.0598 62.2322ZM65.2513 59.9455C65.1976 58.9827 65.4877 58.6331 65.6628 57.9054C65.8393 57.4312 65.9609 57.078 65.2603 57.0466C64.1545 56.9867 64.1693 57.9173 63.9591 58.7117C63.8698 59.0261 63.7124 59.8542 63.4581 59.9964C63.2192 60.1261 62.26 60.0112 61.9603 60.0501C61.6701 60.1322 61.4042 60.3858 61.3346 60.646C61.2401 60.8754 61.2922 61.3172 61.5685 61.5011C61.9518 61.7385 62.9718 61.4093 63.24 61.8035C63.0995 62.6052 63.0182 63.2442 62.8791 63.7645C62.8388 64.0137 62.5605 65.0543 62.4924 65.3005C62.4411 65.5203 62.009 66.6856 62.0691 66.9171C62.1461 67.1223 62.5784 67.2944 62.8892 67.2848C63.5956 67.2605 63.8415 65.7238 63.9888 65.2607C64.0598 64.9866 64.3117 63.9292 64.3688 63.6536C64.4457 63.3238 64.7085 61.7608 64.9965 61.5658C65.2705 61.3694 66.402 61.5868 66.857 61.4094C67.1655 61.287 67.375 60.9008 67.331 60.5161C67.2606 59.847 65.5518 60.3009 65.2513 59.9455ZM69.7801 60.2808C69.6694 60.1284 69.4554 60.0214 69.2451 60.0134C68.4903 59.9622 68.4655 60.4664 68.2319 61.4835C67.988 62.5981 67.7487 64.4734 67.5312 65.6049C67.4587 65.8929 67.3694 66.2073 67.4075 66.3802C67.4596 66.5546 67.7344 66.7524 67.9418 66.7883C68.468 66.8717 68.7354 66.8717 68.9244 66.4129C69.153 65.8457 69.3044 64.2709 69.4149 63.6209C69.4398 63.3842 70.4539 62.8432 71.0423 62.7362C71.2878 62.6775 71.9026 62.5873 72.2023 62.5484C72.4881 62.508 73.0369 62.2419 73.0119 61.6762C72.984 61.4058 72.6689 61.1897 72.3794 61.1311C71.8855 61.0088 71.2912 61.1716 70.9007 61.2713C70.538 61.374 70.0177 61.7698 69.6814 61.6218C69.7575 61.1653 69.8835 60.7703 69.7801 60.2808ZM74.7643 65.4642C75.1102 65.3879 75.6986 65.2808 76.1434 65.2009C76.8029 65.0872 77.1436 64.9259 77.7936 64.769C78.1827 64.6832 78.497 64.2376 78.5086 63.8588C78.535 63.6081 78.3986 63.0307 78.3187 62.8534C77.8678 61.3842 76.7685 60.8604 75.3543 61.1904C74.7798 61.299 74.0961 61.7761 73.6961 62.3675C73.1862 62.9333 72.9408 63.7944 73.0795 65.0196C73.3355 66.2008 73.655 66.6427 74.7345 67.2207C75.4051 67.6712 76.7886 67.6336 77.5529 67.1931C77.81 67.0231 77.925 66.5988 77.6524 66.2463C77.1569 65.8705 76.6881 66.5814 75.7757 66.2884C75.1762 66.0987 74.8274 65.9353 74.7643 65.4642ZM75.0409 62.8327C75.9927 62.2148 76.8222 62.3583 77.073 63.4545C76.9785 63.6839 76.5499 63.8781 76.2223 63.9141C75.7248 63.9603 74.8462 64.1495 74.5999 64.0814C74.5149 63.8191 74.6481 63.087 75.0409 62.8327ZM81.1472 64.2346C81.0613 63.3106 81.7315 61.6214 80.5957 61.7132C79.9421 61.7712 79.8799 62.7641 79.7687 63.5548C79.623 64.539 79.3945 65.3737 79.1946 66.338C79.005 67.205 78.7428 68.0924 79.7672 67.9889C80.1504 67.9588 80.7372 66.7958 81.0178 66.403C81.5087 65.7507 81.4098 65.7544 82.2025 64.9086C82.5219 64.548 82.856 64.0482 83.2935 64.0379C83.3112 64.6732 83.2006 65.0558 83.0468 65.7153C82.8776 66.3873 82.7305 67.1179 82.7005 67.8045C82.9681 68.3394 83.9383 68.2162 84.169 67.7618C84.2408 67.6145 84.2203 67.2745 84.2466 67.0239C84.3674 66.0089 84.8823 64.4583 84.8997 63.4888C84.9048 63.0388 84.7361 62.5003 84.5793 62.3852C84.0743 61.9662 83.4918 62.285 83.102 62.5115C82.5906 62.8238 82.1539 63.2283 81.7993 63.6556C81.6212 63.8762 81.4227 64.0243 81.1472 64.2346ZM89.378 70.0267C90.0177 70.2347 90.4383 69.9833 90.5833 69.4073C90.8506 68.3374 90.9156 66.7816 91.1052 65.3798C91.2816 64.3707 91.5342 63.1725 91.7304 62.1092C91.8989 61.3105 92.3661 59.8111 91.6678 59.6251C91.4523 59.532 90.9841 59.5673 90.8676 59.738C90.4727 60.4145 90.5851 62.4252 89.9535 62.8093C89.0624 62.7157 88.271 62.7451 87.5214 63.0464C86.8429 63.3411 86.3432 63.8094 85.9571 64.4023C85.6414 64.8618 85.4033 65.6533 85.5222 66.3978C85.6439 67.1144 86.3101 67.8742 86.8876 68.2728C87.5194 68.6911 88.2617 68.7269 89.0099 68.9745C89.1602 69.2859 89.0738 69.8399 89.378 70.0267ZM89.5473 66.0044C89.4602 66.4316 89.3805 67.3242 89.209 67.6158C88.5385 67.7002 87.5704 67.1339 87.2223 66.5624C86.6476 65.6011 87.4733 64.3083 88.5138 64.3191C89.1602 64.3307 89.5119 64.1988 89.6929 64.4853C89.7597 64.7879 89.6359 65.5632 89.5473 66.0044Z" fill="black"/>
<defs>
<clipPath id="clip0_96_237">
<rect width="28.3944" height="34.4457" fill="white" transform="translate(51.999 27.0134) rotate(-72.0565)"/>
</clipPath>
</defs>
</svg>
